{"title":"Toy Story.3.[2010].R1.DVDRIP.XVID.[Eng]-DUQA.avi","uid":5818207,"size":630014316,"categoryP":"video","categoryS":"movies","magnet":"?xt=urn:btih:ff5c5c767a64a31163ec6059dfc7a36f79525af5&amp;dn=Toy+Story.3.%5B2010%5D.R1.DVDRIP.XVID.%5BEng%5D-DUQA.avi&amp;tr=udp%3A%2F%2Ftracker.openbittorrent.com%3A80&amp;tr=udp%3A%2F%2Fopen.demonii.com%3A1337&amp;tr=udp%3A%2F%2Ftracker.coppersurfer.tk%3A6969&amp;tr=udp%3A%2F%2Fexodus.desync.com%3A6969","seeders":0,"leechers":0,"uploader":"razvanripper","files":-1,"time":1283905365,"description":"Link                             : http://www.imdb.com/title/tt0435761/\nFormat                           : AVI\nFormat/Info                      : Audio Video Interleave\nFile size                        : 601 MiB\nDuration                         : 1h 41mn\nOverall bit rate                 : 824 Kbps\nWriting library                  : MPlayer\n\nVideo\nFormat                           : MPEG-4 Visual\nFormat profile                   : Simple@L1\nFormat settings, BVOP            : No\nFormat settings, QPel            : No\nFormat settings, GMC             : No warppoints\nFormat settings, Matrix          : Default (H.263)\nCodec ID                         : DX50\nCodec ID/Hint                    : DivX 5\nDuration                         : 1h 41mn\nBit rate                         : 650 Kbps\nWidth                            : 640 pixels\nHeight                           : 352 pixels\nDisplay aspect ratio             : 16/9\nFrame rate                       : 29.970 fps\nResolution                       : 24 bits\nColorimetry                      : 4:2:0\nScan type                        : Interlaced\nScan order                       : Top Field First\nBits/(Pixel*Frame)               : 0.096\nStream size                      : 474 MiB (79%)\nWriting library                  : Lavc52.0.0\n\nAudio\nFormat                           : MPEG Audio\nFormat version                   : Version 1\nFormat profile                   : Layer 3\nCodec ID                         : 55\nCodec ID/Hint                    : MP3\nDuration                         : 1h 41mn\nBit rate mode                    : Constant\nBit rate                         : 160 Kbps\nChannel(s)                       : 2 channels\nSampling rate                    : 44.1 KHz\nResolution                       : 16 bits\nStream size                      : 117 MiB (19%)\nAlignment                        : Aligned on interleaves\nInterleave, duration             : 26 ms (0.78 video frame)\nInterleave, preload duration     : 809 ms\n","torrent":{"xt":"urn:btih:ff5c5c767a64a31163ec6059dfc7a36f79525af5","amp;dn":"Toy+Story.3.%5B2010%5D.R1.DVDRIP.XVID.%5BEng%5D-DUQA.avi","amp;tr":["udp%3A%2F%2Ftracker.openbittorrent.com%3A80","udp%3A%2F%2Fopen.demonii.com%3A1337","udp%3A%2F%2Ftracker.coppersurfer.tk%3A6969","udp%3A%2F%2Fexodus.desync.com%3A6969"],"infoHash":"ff5c5c767a64a31163ec6059dfc7a36f79525af5","infoHashBuffer":{"type":"Buffer","data":[255,92,92,118,122,100,163,17,99,236,96,89,223,199,163,111,121,82,90,245]},"announce":[],"urlList":[]}}